solid 
facet normal 0.09801806 0.99518466 0
 outer loop
  vertex 1e-05 1.1e-05 0
  vertex 1e-05 1.1e-05 2e-05
  vertex 1.019509e-05 1.0980785e-05 2e-05
 endloop
endfacet
facet normal 0.09801806 0.99518466 -0
 outer loop
  vertex 1e-05 1.1e-05 0
  vertex 1.019509e-05 1.0980785e-05 2e-05
  vertex 1.019509e-05 1.0980785e-05 0
 endloop
endfacet
facet normal 0.29028642 0.95693976 0
 outer loop
  vertex 1.019509e-05 1.0980785e-05 0
  vertex 1.019509e-05 1.0980785e-05 2e-05
  vertex 1.0382683e-05 1.0923879e-05 2e-05
 endloop
endfacet
facet normal 0.29028642 0.95693976 -0
 outer loop
  vertex 1.019509e-05 1.0980785e-05 0
  vertex 1.0382683e-05 1.0923879e-05 2e-05
  vertex 1.0382683e-05 1.0923879e-05 0
 endloop
endfacet
facet normal 0.4713976 0.88192075 0
 outer loop
  vertex 1.0382683e-05 1.0923879e-05 0
  vertex 1.0382683e-05 1.0923879e-05 2e-05
  vertex 1.055557e-05 1.0831469e-05 2e-05
 endloop
endfacet
facet normal 0.4713976 0.88192075 -0
 outer loop
  vertex 1.0382683e-05 1.0923879e-05 0
  vertex 1.055557e-05 1.0831469e-05 2e-05
  vertex 1.055557e-05 1.0831469e-05 0
 endloop
endfacet
facet normal 0.6343927 0.77301097 0
 outer loop
  vertex 1.055557e-05 1.0831469e-05 0
  vertex 1.055557e-05 1.0831469e-05 2e-05
  vertex 1.0707106e-05 1.0707106e-05 2e-05
 endloop
endfacet
facet normal 0.6343927 0.77301097 -0
 outer loop
  vertex 1.055557e-05 1.0831469e-05 0
  vertex 1.0707106e-05 1.0707106e-05 2e-05
  vertex 1.0707106e-05 1.0707106e-05 0
 endloop
endfacet
facet normal 0.77301097 0.6343927 0
 outer loop
  vertex 1.0707106e-05 1.0707106e-05 0
  vertex 1.0707106e-05 1.0707106e-05 2e-05
  vertex 1.0831469e-05 1.055557e-05 2e-05
 endloop
endfacet
facet normal 0.77301097 0.6343927 -0
 outer loop
  vertex 1.0707106e-05 1.0707106e-05 0
  vertex 1.0831469e-05 1.055557e-05 2e-05
  vertex 1.0831469e-05 1.055557e-05 0
 endloop
endfacet
facet normal 0.88192075 0.4713976 0
 outer loop
  vertex 1.0831469e-05 1.055557e-05 0
  vertex 1.0831469e-05 1.055557e-05 2e-05
  vertex 1.0923879e-05 1.0382683e-05 2e-05
 endloop
endfacet
facet normal 0.88192075 0.4713976 -0
 outer loop
  vertex 1.0831469e-05 1.055557e-05 0
  vertex 1.0923879e-05 1.0382683e-05 2e-05
  vertex 1.0923879e-05 1.0382683e-05 0
 endloop
endfacet
facet normal 0.95693976 0.29028642 0
 outer loop
  vertex 1.0923879e-05 1.0382683e-05 0
  vertex 1.0923879e-05 1.0382683e-05 2e-05
  vertex 1.0980785e-05 1.019509e-05 2e-05
 endloop
endfacet
facet normal 0.95693976 0.29028642 -0
 outer loop
  vertex 1.0923879e-05 1.0382683e-05 0
  vertex 1.0980785e-05 1.019509e-05 2e-05
  vertex 1.0980785e-05 1.019509e-05 0
 endloop
endfacet
facet normal 0.99518466 0.09801806 0
 outer loop
  vertex 1.0980785e-05 1.019509e-05 0
  vertex 1.0980785e-05 1.019509e-05 2e-05
  vertex 1.1e-05 1e-05 2e-05
 endloop
endfacet
facet normal 0.99518466 0.09801806 -0
 outer loop
  vertex 1.0980785e-05 1.019509e-05 0
  vertex 1.1e-05 1e-05 2e-05
  vertex 1.1e-05 1e-05 0
 endloop
endfacet
facet normal 0.99518466 -0.09801806 0
 outer loop
  vertex 1.1e-05 1e-05 0
  vertex 1.1e-05 1e-05 2e-05
  vertex 1.0980785e-05 9.8049095e-06 2e-05
 endloop
endfacet
facet normal 0.99518466 -0.09801806 0
 outer loop
  vertex 1.1e-05 1e-05 0
  vertex 1.0980785e-05 9.8049095e-06 2e-05
  vertex 1.0980785e-05 9.8049095e-06 0
 endloop
endfacet
facet normal 0.95693976 -0.29028642 0
 outer loop
  vertex 1.0980785e-05 9.8049095e-06 0
  vertex 1.0980785e-05 9.8049095e-06 2e-05
  vertex 1.0923879e-05 9.617316e-06 2e-05
 endloop
endfacet
facet normal 0.95693976 -0.29028642 0
 outer loop
  vertex 1.0980785e-05 9.8049095e-06 0
  vertex 1.0923879e-05 9.617316e-06 2e-05
  vertex 1.0923879e-05 9.617316e-06 0
 endloop
endfacet
facet normal 0.88192075 -0.4713976 0
 outer loop
  vertex 1.0923879e-05 9.617316e-06 0
  vertex 1.0923879e-05 9.617316e-06 2e-05
  vertex 1.0831469e-05 9.444429e-06 2e-05
 endloop
endfacet
facet normal 0.88192075 -0.4713976 0
 outer loop
  vertex 1.0923879e-05 9.617316e-06 0
  vertex 1.0831469e-05 9.444429e-06 2e-05
  vertex 1.0831469e-05 9.444429e-06 0
 endloop
endfacet
facet normal 0.77301097 -0.6343927 0
 outer loop
  vertex 1.0831469e-05 9.444429e-06 0
  vertex 1.0831469e-05 9.444429e-06 2e-05
  vertex 1.0707106e-05 9.292893e-06 2e-05
 endloop
endfacet
facet normal 0.77301097 -0.6343927 0
 outer loop
  vertex 1.0831469e-05 9.444429e-06 0
  vertex 1.0707106e-05 9.292893e-06 2e-05
  vertex 1.0707106e-05 9.292893e-06 0
 endloop
endfacet
facet normal 0.6343927 -0.77301097 0
 outer loop
  vertex 1.0707106e-05 9.292893e-06 0
  vertex 1.0707106e-05 9.292893e-06 2e-05
  vertex 1.055557e-05 9.168531e-06 2e-05
 endloop
endfacet
facet normal 0.6343927 -0.77301097 0
 outer loop
  vertex 1.0707106e-05 9.292893e-06 0
  vertex 1.055557e-05 9.168531e-06 2e-05
  vertex 1.055557e-05 9.168531e-06 0
 endloop
endfacet
facet normal 0.4713976 -0.88192075 0
 outer loop
  vertex 1.055557e-05 9.168531e-06 0
  vertex 1.055557e-05 9.168531e-06 2e-05
  vertex 1.0382683e-05 9.0761205e-06 2e-05
 endloop
endfacet
facet normal 0.4713976 -0.88192075 0
 outer loop
  vertex 1.055557e-05 9.168531e-06 0
  vertex 1.0382683e-05 9.0761205e-06 2e-05
  vertex 1.0382683e-05 9.0761205e-06 0
 endloop
endfacet
facet normal 0.29028642 -0.95693976 0
 outer loop
  vertex 1.0382683e-05 9.0761205e-06 0
  vertex 1.0382683e-05 9.0761205e-06 2e-05
  vertex 1.019509e-05 9.019214e-06 2e-05
 endloop
endfacet
facet normal 0.29028642 -0.95693976 0
 outer loop
  vertex 1.0382683e-05 9.0761205e-06 0
  vertex 1.019509e-05 9.019214e-06 2e-05
  vertex 1.019509e-05 9.019214e-06 0
 endloop
endfacet
facet normal 0.09801806 -0.99518466 0
 outer loop
  vertex 1.019509e-05 9.019214e-06 0
  vertex 1.019509e-05 9.019214e-06 2e-05
  vertex 1e-05 8.999999e-06 2e-05
 endloop
endfacet
facet normal 0.09801806 -0.99518466 0
 outer loop
  vertex 1.019509e-05 9.019214e-06 0
  vertex 1e-05 8.999999e-06 2e-05
  vertex 1e-05 8.999999e-06 0
 endloop
endfacet
facet normal -0.09801806 -0.99518466 -0
 outer loop
  vertex 1e-05 8.999999e-06 0
  vertex 1e-05 8.999999e-06 2e-05
  vertex 9.8049095e-06 9.019214e-06 2e-05
 endloop
endfacet
facet normal -0.09801806 -0.99518466 0
 outer loop
  vertex 1e-05 8.999999e-06 0
  vertex 9.8049095e-06 9.019214e-06 2e-05
  vertex 9.8049095e-06 9.019214e-06 0
 endloop
endfacet
facet normal -0.29028642 -0.95693976 -0
 outer loop
  vertex 9.8049095e-06 9.019214e-06 0
  vertex 9.8049095e-06 9.019214e-06 2e-05
  vertex 9.617316e-06 9.0761205e-06 2e-05
 endloop
endfacet
facet normal -0.29028642 -0.95693976 0
 outer loop
  vertex 9.8049095e-06 9.019214e-06 0
  vertex 9.617316e-06 9.0761205e-06 2e-05
  vertex 9.617316e-06 9.0761205e-06 0
 endloop
endfacet
facet normal -0.4713976 -0.88192075 -0
 outer loop
  vertex 9.617316e-06 9.0761205e-06 0
  vertex 9.617316e-06 9.0761205e-06 2e-05
  vertex 9.444429e-06 9.168531e-06 2e-05
 endloop
endfacet
facet normal -0.4713976 -0.88192075 0
 outer loop
  vertex 9.617316e-06 9.0761205e-06 0
  vertex 9.444429e-06 9.168531e-06 2e-05
  vertex 9.444429e-06 9.168531e-06 0
 endloop
endfacet
facet normal -0.6343927 -0.77301097 -0
 outer loop
  vertex 9.444429e-06 9.168531e-06 0
  vertex 9.444429e-06 9.168531e-06 2e-05
  vertex 9.292893e-06 9.292893e-06 2e-05
 endloop
endfacet
facet normal -0.6343927 -0.77301097 0
 outer loop
  vertex 9.444429e-06 9.168531e-06 0
  vertex 9.292893e-06 9.292893e-06 2e-05
  vertex 9.292893e-06 9.292893e-06 0
 endloop
endfacet
facet normal -0.77301097 -0.6343927 -0
 outer loop
  vertex 9.292893e-06 9.292893e-06 0
  vertex 9.292893e-06 9.292893e-06 2e-05
  vertex 9.168531e-06 9.444429e-06 2e-05
 endloop
endfacet
facet normal -0.77301097 -0.6343927 0
 outer loop
  vertex 9.292893e-06 9.292893e-06 0
  vertex 9.168531e-06 9.444429e-06 2e-05
  vertex 9.168531e-06 9.444429e-06 0
 endloop
endfacet
facet normal -0.88192075 -0.4713976 -0
 outer loop
  vertex 9.168531e-06 9.444429e-06 0
  vertex 9.168531e-06 9.444429e-06 2e-05
  vertex 9.0761205e-06 9.617316e-06 2e-05
 endloop
endfacet
facet normal -0.88192075 -0.4713976 0
 outer loop
  vertex 9.168531e-06 9.444429e-06 0
  vertex 9.0761205e-06 9.617316e-06 2e-05
  vertex 9.0761205e-06 9.617316e-06 0
 endloop
endfacet
facet normal -0.95693976 -0.29028642 -0
 outer loop
  vertex 9.0761205e-06 9.617316e-06 0
  vertex 9.0761205e-06 9.617316e-06 2e-05
  vertex 9.019214e-06 9.8049095e-06 2e-05
 endloop
endfacet
facet normal -0.95693976 -0.29028642 0
 outer loop
  vertex 9.0761205e-06 9.617316e-06 0
  vertex 9.019214e-06 9.8049095e-06 2e-05
  vertex 9.019214e-06 9.8049095e-06 0
 endloop
endfacet
facet normal -0.99518466 -0.09801806 -0
 outer loop
  vertex 9.019214e-06 9.8049095e-06 0
  vertex 9.019214e-06 9.8049095e-06 2e-05
  vertex 8.999999e-06 1e-05 2e-05
 endloop
endfacet
facet normal -0.99518466 -0.09801806 0
 outer loop
  vertex 9.019214e-06 9.8049095e-06 0
  vertex 8.999999e-06 1e-05 2e-05
  vertex 8.999999e-06 1e-05 0
 endloop
endfacet
facet normal -0.99518466 0.09801806 0
 outer loop
  vertex 8.999999e-06 1e-05 0
  vertex 8.999999e-06 1e-05 2e-05
  vertex 9.019214e-06 1.019509e-05 2e-05
 endloop
endfacet
facet normal -0.99518466 0.09801806 0
 outer loop
  vertex 8.999999e-06 1e-05 0
  vertex 9.019214e-06 1.019509e-05 2e-05
  vertex 9.019214e-06 1.019509e-05 0
 endloop
endfacet
facet normal -0.95693976 0.29028642 0
 outer loop
  vertex 9.019214e-06 1.019509e-05 0
  vertex 9.019214e-06 1.019509e-05 2e-05
  vertex 9.0761205e-06 1.0382683e-05 2e-05
 endloop
endfacet
facet normal -0.95693976 0.29028642 0
 outer loop
  vertex 9.019214e-06 1.019509e-05 0
  vertex 9.0761205e-06 1.0382683e-05 2e-05
  vertex 9.0761205e-06 1.0382683e-05 0
 endloop
endfacet
facet normal -0.88192075 0.4713976 0
 outer loop
  vertex 9.0761205e-06 1.0382683e-05 0
  vertex 9.0761205e-06 1.0382683e-05 2e-05
  vertex 9.168531e-06 1.055557e-05 2e-05
 endloop
endfacet
facet normal -0.88192075 0.4713976 0
 outer loop
  vertex 9.0761205e-06 1.0382683e-05 0
  vertex 9.168531e-06 1.055557e-05 2e-05
  vertex 9.168531e-06 1.055557e-05 0
 endloop
endfacet
facet normal -0.77301097 0.6343927 0
 outer loop
  vertex 9.168531e-06 1.055557e-05 0
  vertex 9.168531e-06 1.055557e-05 2e-05
  vertex 9.292893e-06 1.0707106e-05 2e-05
 endloop
endfacet
facet normal -0.77301097 0.6343927 0
 outer loop
  vertex 9.168531e-06 1.055557e-05 0
  vertex 9.292893e-06 1.0707106e-05 2e-05
  vertex 9.292893e-06 1.0707106e-05 0
 endloop
endfacet
facet normal -0.6343927 0.77301097 0
 outer loop
  vertex 9.292893e-06 1.0707106e-05 0
  vertex 9.292893e-06 1.0707106e-05 2e-05
  vertex 9.444429e-06 1.0831469e-05 2e-05
 endloop
endfacet
facet normal -0.6343927 0.77301097 0
 outer loop
  vertex 9.292893e-06 1.0707106e-05 0
  vertex 9.444429e-06 1.0831469e-05 2e-05
  vertex 9.444429e-06 1.0831469e-05 0
 endloop
endfacet
facet normal -0.4713976 0.88192075 0
 outer loop
  vertex 9.444429e-06 1.0831469e-05 0
  vertex 9.444429e-06 1.0831469e-05 2e-05
  vertex 9.617316e-06 1.0923879e-05 2e-05
 endloop
endfacet
facet normal -0.4713976 0.88192075 0
 outer loop
  vertex 9.444429e-06 1.0831469e-05 0
  vertex 9.617316e-06 1.0923879e-05 2e-05
  vertex 9.617316e-06 1.0923879e-05 0
 endloop
endfacet
facet normal 0 0 1
 outer loop
  vertex 1.0382683e-05 1.0923879e-05 2e-05
  vertex 1.019509e-05 1.0980785e-05 2e-05
  vertex 1e-05 1.1e-05 2e-05
 endloop
endfacet
facet normal 0 0 1
 outer loop
  vertex 1e-05 1.1e-05 2e-05
  vertex 9.8049095e-06 1.0980785e-05 2e-05
  vertex 9.617316e-06 1.0923879e-05 2e-05
 endloop
endfacet
facet normal 0 0 1
 outer loop
  vertex 9.617316e-06 1.0923879e-05 2e-05
  vertex 9.444429e-06 1.0831469e-05 2e-05
  vertex 9.292893e-06 1.0707106e-05 2e-05
 endloop
endfacet
facet normal 0 0 1
 outer loop
  vertex 9.292893e-06 1.0707106e-05 2e-05
  vertex 9.168531e-06 1.055557e-05 2e-05
  vertex 9.0761205e-06 1.0382683e-05 2e-05
 endloop
endfacet
facet normal 0 0 1
 outer loop
  vertex 9.0761205e-06 1.0382683e-05 2e-05
  vertex 9.019214e-06 1.019509e-05 2e-05
  vertex 8.999999e-06 1e-05 2e-05
 endloop
endfacet
facet normal 0 0 1
 outer loop
  vertex 8.999999e-06 1e-05 2e-05
  vertex 9.019214e-06 9.8049095e-06 2e-05
  vertex 9.0761205e-06 9.617316e-06 2e-05
 endloop
endfacet
facet normal 0 0 1
 outer loop
  vertex 9.0761205e-06 9.617316e-06 2e-05
  vertex 9.168531e-06 9.444429e-06 2e-05
  vertex 9.292893e-06 9.292893e-06 2e-05
 endloop
endfacet
facet normal 0 0 1
 outer loop
  vertex 9.292893e-06 9.292893e-06 2e-05
  vertex 9.444429e-06 9.168531e-06 2e-05
  vertex 9.617316e-06 9.0761205e-06 2e-05
 endloop
endfacet
facet normal 0 0 1
 outer loop
  vertex 9.617316e-06 9.0761205e-06 2e-05
  vertex 9.8049095e-06 9.019214e-06 2e-05
  vertex 1e-05 8.999999e-06 2e-05
 endloop
endfacet
facet normal 0 0 1
 outer loop
  vertex 1e-05 8.999999e-06 2e-05
  vertex 1.019509e-05 9.019214e-06 2e-05
  vertex 1.0382683e-05 9.0761205e-06 2e-05
 endloop
endfacet
facet normal 0 0 1
 outer loop
  vertex 1.0382683e-05 9.0761205e-06 2e-05
  vertex 1.055557e-05 9.168531e-06 2e-05
  vertex 1.0707106e-05 9.292893e-06 2e-05
 endloop
endfacet
facet normal 0 0 1
 outer loop
  vertex 1.0707106e-05 9.292893e-06 2e-05
  vertex 1.0831469e-05 9.444429e-06 2e-05
  vertex 1.0923879e-05 9.617316e-06 2e-05
 endloop
endfacet
facet normal 0 0 1
 outer loop
  vertex 1.0923879e-05 9.617316e-06 2e-05
  vertex 1.0980785e-05 9.8049095e-06 2e-05
  vertex 1.1e-05 1e-05 2e-05
 endloop
endfacet
facet normal 0 0 1
 outer loop
  vertex 1.1e-05 1e-05 2e-05
  vertex 1.0980785e-05 1.019509e-05 2e-05
  vertex 1.0923879e-05 1.0382683e-05 2e-05
 endloop
endfacet
facet normal 0 0 1
 outer loop
  vertex 1.0923879e-05 1.0382683e-05 2e-05
  vertex 1.0831469e-05 1.055557e-05 2e-05
  vertex 1.0707106e-05 1.0707106e-05 2e-05
 endloop
endfacet
facet normal 0 0 1
 outer loop
  vertex 1.0707106e-05 1.0707106e-05 2e-05
  vertex 1.055557e-05 1.0831469e-05 2e-05
  vertex 1.0382683e-05 1.0923879e-05 2e-05
 endloop
endfacet
facet normal -0 0 1
 outer loop
  vertex 1.0382683e-05 1.0923879e-05 2e-05
  vertex 1e-05 1.1e-05 2e-05
  vertex 9.617316e-06 1.0923879e-05 2e-05
 endloop
endfacet
facet normal 0 0 1
 outer loop
  vertex 9.617316e-06 1.0923879e-05 2e-05
  vertex 9.292893e-06 1.0707106e-05 2e-05
  vertex 9.0761205e-06 1.0382683e-05 2e-05
 endloop
endfacet
facet normal 0 -0 1
 outer loop
  vertex 9.0761205e-06 1.0382683e-05 2e-05
  vertex 8.999999e-06 1e-05 2e-05
  vertex 9.0761205e-06 9.617316e-06 2e-05
 endloop
endfacet
facet normal 0 0 1
 outer loop
  vertex 9.0761205e-06 9.617316e-06 2e-05
  vertex 9.292893e-06 9.292893e-06 2e-05
  vertex 9.617316e-06 9.0761205e-06 2e-05
 endloop
endfacet
facet normal 0 0 1
 outer loop
  vertex 9.617316e-06 9.0761205e-06 2e-05
  vertex 1e-05 8.999999e-06 2e-05
  vertex 1.0382683e-05 9.0761205e-06 2e-05
 endloop
endfacet
facet normal 0 0 1
 outer loop
  vertex 1.0382683e-05 9.0761205e-06 2e-05
  vertex 1.0707106e-05 9.292893e-06 2e-05
  vertex 1.0923879e-05 9.617316e-06 2e-05
 endloop
endfacet
facet normal 0 0 1
 outer loop
  vertex 1.0923879e-05 9.617316e-06 2e-05
  vertex 1.1e-05 1e-05 2e-05
  vertex 1.0923879e-05 1.0382683e-05 2e-05
 endloop
endfacet
facet normal 0 0 1
 outer loop
  vertex 1.0923879e-05 1.0382683e-05 2e-05
  vertex 1.0707106e-05 1.0707106e-05 2e-05
  vertex 1.0382683e-05 1.0923879e-05 2e-05
 endloop
endfacet
facet normal 0 0 1
 outer loop
  vertex 1.0382683e-05 1.0923879e-05 2e-05
  vertex 9.617316e-06 1.0923879e-05 2e-05
  vertex 9.0761205e-06 1.0382683e-05 2e-05
 endloop
endfacet
facet normal 0 -0 1
 outer loop
  vertex 9.0761205e-06 1.0382683e-05 2e-05
  vertex 9.0761205e-06 9.617316e-06 2e-05
  vertex 9.617316e-06 9.0761205e-06 2e-05
 endloop
endfacet
facet normal 0 0 1
 outer loop
  vertex 9.617316e-06 9.0761205e-06 2e-05
  vertex 1.0382683e-05 9.0761205e-06 2e-05
  vertex 1.0923879e-05 9.617316e-06 2e-05
 endloop
endfacet
facet normal 0 0 1
 outer loop
  vertex 1.0923879e-05 9.617316e-06 2e-05
  vertex 1.0923879e-05 1.0382683e-05 2e-05
  vertex 1.0382683e-05 1.0923879e-05 2e-05
 endloop
endfacet
facet normal 0 -0 1
 outer loop
  vertex 1.0382683e-05 1.0923879e-05 2e-05
  vertex 9.0761205e-06 1.0382683e-05 2e-05
  vertex 9.617316e-06 9.0761205e-06 2e-05
 endloop
endfacet
facet normal 0 0 1
 outer loop
  vertex 9.617316e-06 9.0761205e-06 2e-05
  vertex 1.0923879e-05 9.617316e-06 2e-05
  vertex 1.0382683e-05 1.0923879e-05 2e-05
 endloop
endfacet
facet normal -0.29028642 0.95693976 0
 outer loop
  vertex 9.617316e-06 1.0923879e-05 0
  vertex 9.617316e-06 1.0923879e-05 2e-05
  vertex 9.8049095e-06 1.0980785e-05 2e-05
 endloop
endfacet
facet normal -0.29028642 0.95693976 0
 outer loop
  vertex 9.617316e-06 1.0923879e-05 0
  vertex 9.8049095e-06 1.0980785e-05 2e-05
  vertex 9.8049095e-06 1.0980785e-05 0
 endloop
endfacet
facet normal -0.09801806 0.99518466 0
 outer loop
  vertex 9.8049095e-06 1.0980785e-05 0
  vertex 9.8049095e-06 1.0980785e-05 2e-05
  vertex 1e-05 1.1e-05 2e-05
 endloop
endfacet
facet normal -0.09801806 0.99518466 0
 outer loop
  vertex 9.8049095e-06 1.0980785e-05 0
  vertex 1e-05 1.1e-05 2e-05
  vertex 1e-05 1.1e-05 0
 endloop
endfacet
facet normal -0 0 -1
 outer loop
  vertex 9.8049095e-06 1.0980785e-05 0
  vertex 1e-05 1.1e-05 0
  vertex 1.019509e-05 1.0980785e-05 0
 endloop
endfacet
facet normal 0 0 -1
 outer loop
  vertex 1.019509e-05 1.0980785e-05 0
  vertex 1.0382683e-05 1.0923879e-05 0
  vertex 1.055557e-05 1.0831469e-05 0
 endloop
endfacet
facet normal 0 0 -1
 outer loop
  vertex 1.055557e-05 1.0831469e-05 0
  vertex 1.0707106e-05 1.0707106e-05 0
  vertex 1.0831469e-05 1.055557e-05 0
 endloop
endfacet
facet normal 0 0 -1
 outer loop
  vertex 1.0831469e-05 1.055557e-05 0
  vertex 1.0923879e-05 1.0382683e-05 0
  vertex 1.0980785e-05 1.019509e-05 0
 endloop
endfacet
facet normal 0 0 -1
 outer loop
  vertex 1.0980785e-05 1.019509e-05 0
  vertex 1.1e-05 1e-05 0
  vertex 1.0980785e-05 9.8049095e-06 0
 endloop
endfacet
facet normal 0 0 -1
 outer loop
  vertex 1.0980785e-05 9.8049095e-06 0
  vertex 1.0923879e-05 9.617316e-06 0
  vertex 1.0831469e-05 9.444429e-06 0
 endloop
endfacet
facet normal 0 0 -1
 outer loop
  vertex 1.0831469e-05 9.444429e-06 0
  vertex 1.0707106e-05 9.292893e-06 0
  vertex 1.055557e-05 9.168531e-06 0
 endloop
endfacet
facet normal 0 0 -1
 outer loop
  vertex 1.055557e-05 9.168531e-06 0
  vertex 1.0382683e-05 9.0761205e-06 0
  vertex 1.019509e-05 9.019214e-06 0
 endloop
endfacet
facet normal 0 0 -1
 outer loop
  vertex 1.019509e-05 9.019214e-06 0
  vertex 1e-05 8.999999e-06 0
  vertex 9.8049095e-06 9.019214e-06 0
 endloop
endfacet
facet normal 0 0 -1
 outer loop
  vertex 9.8049095e-06 9.019214e-06 0
  vertex 9.617316e-06 9.0761205e-06 0
  vertex 9.444429e-06 9.168531e-06 0
 endloop
endfacet
facet normal 0 0 -1
 outer loop
  vertex 9.444429e-06 9.168531e-06 0
  vertex 9.292893e-06 9.292893e-06 0
  vertex 9.168531e-06 9.444429e-06 0
 endloop
endfacet
facet normal 0 0 -1
 outer loop
  vertex 9.168531e-06 9.444429e-06 0
  vertex 9.0761205e-06 9.617316e-06 0
  vertex 9.019214e-06 9.8049095e-06 0
 endloop
endfacet
facet normal 0 -0 -1
 outer loop
  vertex 9.019214e-06 9.8049095e-06 0
  vertex 8.999999e-06 1e-05 0
  vertex 9.019214e-06 1.019509e-05 0
 endloop
endfacet
facet normal 0 0 -1
 outer loop
  vertex 9.019214e-06 1.019509e-05 0
  vertex 9.0761205e-06 1.0382683e-05 0
  vertex 9.168531e-06 1.055557e-05 0
 endloop
endfacet
facet normal 0 0 -1
 outer loop
  vertex 9.168531e-06 1.055557e-05 0
  vertex 9.292893e-06 1.0707106e-05 0
  vertex 9.444429e-06 1.0831469e-05 0
 endloop
endfacet
facet normal 0 0 -1
 outer loop
  vertex 9.444429e-06 1.0831469e-05 0
  vertex 9.617316e-06 1.0923879e-05 0
  vertex 9.8049095e-06 1.0980785e-05 0
 endloop
endfacet
facet normal 0 0 -1
 outer loop
  vertex 9.8049095e-06 1.0980785e-05 0
  vertex 1.019509e-05 1.0980785e-05 0
  vertex 1.055557e-05 1.0831469e-05 0
 endloop
endfacet
facet normal 0 0 -1
 outer loop
  vertex 1.055557e-05 1.0831469e-05 0
  vertex 1.0831469e-05 1.055557e-05 0
  vertex 1.0980785e-05 1.019509e-05 0
 endloop
endfacet
facet normal 0 0 -1
 outer loop
  vertex 1.0980785e-05 1.019509e-05 0
  vertex 1.0980785e-05 9.8049095e-06 0
  vertex 1.0831469e-05 9.444429e-06 0
 endloop
endfacet
facet normal 0 0 -1
 outer loop
  vertex 1.0831469e-05 9.444429e-06 0
  vertex 1.055557e-05 9.168531e-06 0
  vertex 1.019509e-05 9.019214e-06 0
 endloop
endfacet
facet normal 0 0 -1
 outer loop
  vertex 1.019509e-05 9.019214e-06 0
  vertex 9.8049095e-06 9.019214e-06 0
  vertex 9.444429e-06 9.168531e-06 0
 endloop
endfacet
facet normal 0 0 -1
 outer loop
  vertex 9.444429e-06 9.168531e-06 0
  vertex 9.168531e-06 9.444429e-06 0
  vertex 9.019214e-06 9.8049095e-06 0
 endloop
endfacet
facet normal 0 -0 -1
 outer loop
  vertex 9.019214e-06 9.8049095e-06 0
  vertex 9.019214e-06 1.019509e-05 0
  vertex 9.168531e-06 1.055557e-05 0
 endloop
endfacet
facet normal 0 0 -1
 outer loop
  vertex 9.168531e-06 1.055557e-05 0
  vertex 9.444429e-06 1.0831469e-05 0
  vertex 9.8049095e-06 1.0980785e-05 0
 endloop
endfacet
facet normal 0 0 -1
 outer loop
  vertex 9.8049095e-06 1.0980785e-05 0
  vertex 1.055557e-05 1.0831469e-05 0
  vertex 1.0980785e-05 1.019509e-05 0
 endloop
endfacet
facet normal 0 0 -1
 outer loop
  vertex 1.0980785e-05 1.019509e-05 0
  vertex 1.0831469e-05 9.444429e-06 0
  vertex 1.019509e-05 9.019214e-06 0
 endloop
endfacet
facet normal 0 0 -1
 outer loop
  vertex 1.019509e-05 9.019214e-06 0
  vertex 9.444429e-06 9.168531e-06 0
  vertex 9.019214e-06 9.8049095e-06 0
 endloop
endfacet
facet normal 0 0 -1
 outer loop
  vertex 9.019214e-06 9.8049095e-06 0
  vertex 9.168531e-06 1.055557e-05 0
  vertex 9.8049095e-06 1.0980785e-05 0
 endloop
endfacet
facet normal 0 0 -1
 outer loop
  vertex 9.8049095e-06 1.0980785e-05 0
  vertex 1.0980785e-05 1.019509e-05 0
  vertex 1.019509e-05 9.019214e-06 0
 endloop
endfacet
facet normal 0 -0 -1
 outer loop
  vertex 1.019509e-05 9.019214e-06 0
  vertex 9.019214e-06 9.8049095e-06 0
  vertex 9.8049095e-06 1.0980785e-05 0
 endloop
endfacet
endsolid 
